<svg width="20" height="22" viewBox="0 0 20 22" fill="none" xmlns="http://www.w3.org/2000/svg">
<path d="M17.3336 3.35469C16.0955 1.23172 14.4231 0.0625 12.625 0.0625H7.375C5.57687 0.0625 3.90453 1.23172 2.67188 3.35469C1.46875 5.40437 0.8125 8.11906 0.8125 11C0.8125 13.8809 1.46875 16.5956 2.67188 18.6453C3.90453 20.7683 5.57687 21.9375 7.375 21.9375H12.625C14.4231 21.9375 16.0955 20.7683 17.3336 18.6453C18.5312 16.5956 19.1875 13.8809 19.1875 11C19.1875 8.11906 18.5312 5.40437 17.3336 3.35469ZM16.9202 17.5625H12.6359C13.4278 15.7972 13.8795 13.6764 13.9309 11.4375H18.3059C18.2513 13.7092 17.7656 15.8431 16.9202 17.5625ZM13.9309 10.5625C13.8795 8.32359 13.4278 6.20281 12.6359 4.4375H16.9202C17.7667 6.15688 18.2513 8.29078 18.3059 10.5625H13.9309ZM12.625 0.9375C14.0348 0.9375 15.3802 1.86828 16.4356 3.5625H12.1995C12.1613 3.49359 12.123 3.4225 12.0836 3.35469C11.4733 2.30906 10.758 1.49531 9.97375 0.9375H12.625ZM3.42219 18.2045C2.30328 16.2872 1.6875 13.7344 1.6875 11C1.6875 8.26562 2.30328 5.71281 3.42219 3.79547C4.49734 1.9525 5.90063 0.9375 7.375 0.9375C8.84937 0.9375 10.2527 1.9525 11.3278 3.79547C12.4467 5.71281 13.0625 8.27109 13.0625 11C13.0625 13.7289 12.4467 16.2872 11.3278 18.2045C10.2527 20.0475 8.84937 21.0625 7.375 21.0625C5.90063 21.0625 4.49734 20.0475 3.42219 18.2045ZM12.625 21.0625H9.97375C10.758 20.5058 11.4733 19.6909 12.0836 18.6453C12.123 18.5775 12.1613 18.5064 12.1995 18.4375H16.4356C15.3802 20.1317 14.0348 21.0625 12.625 21.0625Z" fill="black"/>
</svg>
