<svg width="41" height="29" viewBox="0 0 41 29" fill="none" xmlns="http://www.w3.org/2000/svg">
<path d="M8.88637 12.6281C8.44711 12.6281 8.02584 12.7763 7.71523 13.04C7.40462 13.3037 7.23012 13.6614 7.23012 14.0344C7.23012 14.4073 7.40462 14.765 7.71523 15.0287C8.02584 15.2925 8.44711 15.4406 8.88637 15.4406H15.4783C15.696 15.4414 15.9118 15.4055 16.1131 15.3351C16.3144 15.2647 16.4974 15.1611 16.6514 15.0304C16.8053 14.8997 16.9273 14.7444 17.0102 14.5734C17.0931 14.4025 17.1354 14.2193 17.1345 14.0344C17.1345 13.6614 16.96 13.3037 16.6494 13.04C16.3388 12.7763 15.9175 12.6281 15.4783 12.6281H8.88637ZM8.88637 19.6875C8.44711 19.6875 8.02584 19.8357 7.71523 20.0994C7.40462 20.3631 7.23012 20.7208 7.23012 21.0938C7.23012 21.4667 7.40462 21.8244 7.71523 22.0881C8.02584 22.3518 8.44711 22.5 8.88637 22.5H15.4783C15.9175 22.5 16.3388 22.3518 16.6494 22.0881C16.96 21.8244 17.1345 21.4667 17.1345 21.0938C17.1345 20.7208 16.96 20.3631 16.6494 20.0994C16.3388 19.8357 15.9175 19.6875 15.4783 19.6875H8.88637ZM10.5095 7.00312C10.5095 7.37609 10.335 7.73377 10.0244 7.99749C9.71379 8.26122 9.29252 8.40937 8.85325 8.40937C8.41399 8.40937 7.99271 8.26122 7.6821 7.99749C7.3715 7.73377 7.197 7.37609 7.197 7.00312C7.197 6.63016 7.3715 6.27248 7.6821 6.00876C7.99271 5.74503 8.41399 5.59687 8.85325 5.59687C9.29252 5.59687 9.71379 5.74503 10.0244 6.00876C10.335 6.27248 10.5095 6.63016 10.5095 7.00312ZM5.59375 0C4.27596 0 3.01213 0.444474 2.08031 1.23564C1.14849 2.02681 0.625 3.09987 0.625 4.21875V23.9062C0.625 25.0251 1.14849 26.0982 2.08031 26.8894C3.01213 27.6805 4.27596 28.125 5.59375 28.125H25.4688C27.6318 28.1306 29.7916 27.0394 30.3282 24.7106L30.8118 22.6125H35.4062C36.724 22.6125 37.9879 22.168 38.9197 21.3769C39.8515 20.5857 40.375 19.5126 40.375 18.3937V9.87188C40.375 7.16344 38.0033 5.69812 35.5719 5.625H23.7959V4.21875C23.7959 3.09987 23.2724 2.02681 22.3406 1.23564C21.4088 0.444474 20.145 0 18.8272 0H5.59375ZM23.7959 8.4375H30.7191C30.6348 8.64862 30.5694 8.86487 30.5236 9.08438L30.0334 11.2838V11.2894L27.0753 24.1706C26.6911 25.8441 23.7959 25.605 23.7959 23.9034V8.4375ZM20.4834 23.9034C20.4834 24.4181 20.5696 24.8878 20.7319 25.3125H5.59375C5.15449 25.3125 4.73321 25.1643 4.4226 24.9006C4.112 24.6369 3.9375 24.2792 3.9375 23.9062V4.21875C3.9375 3.84579 4.112 3.4881 4.4226 3.22438C4.73321 2.96066 5.15449 2.8125 5.59375 2.8125H18.8272C19.2665 2.8125 19.6877 2.96066 19.9983 3.22438C20.3089 3.4881 20.4834 3.84579 20.4834 4.21875V23.9034ZM35.4062 19.8H31.4577L33.2862 11.8209V11.8125L33.7798 9.60469C34.1541 7.92844 37.0625 8.15906 37.0625 9.86625V18.3937C37.0625 18.7667 36.888 19.1244 36.5774 19.3881C36.2668 19.6518 35.8455 19.8 35.4062 19.8Z" fill="black"/>
</svg>
