<svg width="37" height="35" viewBox="0 0 37 35" fill="none" xmlns="http://www.w3.org/2000/svg">
<path d="M23.4188 9.107L12.5558 3.857L3.621 7.55825V29.6922L12.7912 25.8948L23.6542 31.1448L32.589 27.44V5.30775L23.4188 9.107ZM3.58389e-07 5.25L12.6735 0L23.5365 5.25L34.9481 0.52325C35.0858 0.466171 35.2361 0.443046 35.3854 0.455949C35.5347 0.468852 35.6783 0.517381 35.8034 0.597179C35.9285 0.676977 36.0311 0.785547 36.1021 0.913146C36.173 1.04075 36.2101 1.18338 36.21 1.32825V29.75L23.5365 35L12.6735 29.75L1.26192 34.4767C1.12416 34.5338 0.973903 34.557 0.824621 34.5441C0.675338 34.5311 0.531706 34.4826 0.406615 34.4028C0.281524 34.323 0.178888 34.2145 0.107918 34.0869C0.036949 33.9593 -0.000132993 33.8166 3.58389e-07 33.6717V5.25ZM7.242 15.75H10.863V19.25H7.242V15.75ZM14.484 15.75H18.105V19.25H14.484V15.75ZM25.3434 15.6398L27.5848 13.475L29.5039 15.33L27.2643 17.4965L29.5039 19.663L27.5848 21.518L25.3434 19.3533L23.1038 21.518L21.1828 19.663L23.4224 17.4965L21.1828 15.3317L23.102 13.475L25.3434 15.6398Z" fill="black"/>
</svg>
